<?xml version="1.0" ?><svg id="Layer_1" style="enable-background:new 0 0 32 32;" version="1.1" viewBox="0 0 32 32" xml:space="preserve" xmlns="http://www.w3.org/2000/svg" xmlns:xlink="http://www.w3.org/1999/xlink"><style type="text/css">
	.st0{clip-path:url(#SVGID_2_);}
	.st1{clip-path:url(#SVGID_4_);}
</style><g><g><path d="M11.5,28c-0.1679688,0-0.3369141-0.0424805-0.4892578-0.1279297C10.6953125,27.6953125,10.5,27.3618164,10.5,27    v-6.1113281c0-0.3481445,0.1816406-0.671875,0.4785156-0.8535156L17.5820313,16l-6.6035156-4.0361328    C10.6816406,11.7822266,10.5,11.4589844,10.5,11.1108398V5c0-0.3618164,0.1953125-0.6953125,0.5107422-0.8720703    c0.3164063-0.1767578,0.703125-0.1694336,1.0107422,0.0185547l18,11C30.3183594,15.3286133,30.5,15.6518555,30.5,16    s-0.1816406,0.6713867-0.4785156,0.8535156l-18,11C11.8613281,27.9511719,11.6806641,28,11.5,28z M12.5,21.449707v3.7670898    L27.5820313,16L12.5,6.7832031v3.7666016l7.5214844,4.597168C20.3183594,15.3286133,20.5,15.6518555,20.5,16    c0,0.3486328-0.1816406,0.671875-0.4785156,0.8535156L12.5,21.449707z"/></g><g><g><path d="M1.5,28c-0.1679688,0-0.3369141-0.0424805-0.4892578-0.1279297C0.6953125,27.6953125,0.5,27.3618164,0.5,27V5     c0-0.3618164,0.1953125-0.6953125,0.5107422-0.8720703C1.328125,3.9511719,1.7128906,3.9584961,2.0214844,4.1464844l18,11     C20.3183594,15.3286133,20.5,15.6518555,20.5,16s-0.1816406,0.6713867-0.4785156,0.8535156l-18,11     C1.8613281,27.9511719,1.6806641,28,1.5,28z M2.5,6.7832031v18.4335938L17.5820313,16L2.5,6.7832031z"/></g></g><g><path d="M30.5,28c-0.5527344,0-1-0.4477539-1-1V5c0-0.5522461,0.4472656-1,1-1s1,0.4477539,1,1v22    C31.5,27.5522461,31.0527344,28,30.5,28z"/></g></g></svg>